<svg xmlns="http://www.w3.org/2000/svg" xmlns:xlink="http://www.w3.org/1999/xlink" version="1.1" x="0px" y="0px" viewBox="-2.4000000000000004 -4.800000000000001 52.8 64.8" style="enable-background:new 0 0 48 48;" xml:space="preserve" fill="#E69D5C"><path d="M40,11h-2V8c0-1.65-1.35-3-3-3s-3,1.35-3,3v3H16V8c0-1.65-1.35-3-3-3s-3,1.35-3,3v3H8c-1.65,0-3,1.35-3,3v6v19  c0,1.65,1.35,3,3,3h32c1.65,0,3-1.35,3-3V20v-6C43,12.35,41.65,11,40,11z M34,8c0-0.55,0.45-1,1-1s1,0.45,1,1v3h-2V8z M12,8  c0-0.55,0.45-1,1-1s1,0.45,1,1v3h-2V8z M7,14c0-0.55,0.45-1,1-1h3h4h18h4h3c0.55,0,1,0.45,1,1v5H7V14z M41,39c0,0.55-0.45,1-1,1H8  c-0.55,0-1-0.45-1-1V21h34V39z"/></svg>