<?xml version="1.0" standalone="no"?>
<!DOCTYPE svg PUBLIC "-//W3C//DTD SVG 20010904//EN"
 "http://www.w3.org/TR/2001/REC-SVG-20010904/DTD/svg10.dtd">
<svg version="1.0" xmlns="http://www.w3.org/2000/svg"
 width="512.000000pt" height="512.000000pt" viewBox="0 0 512.000000 512.000000"
 preserveAspectRatio="xMidYMid meet">

<g transform="translate(0.000000,512.000000) scale(0.100000,-0.100000)"
fill="#c27a3c" stroke="none">
<path d="M4410 4419 c-35 -15 -306 -281 -1236 -1210 l-1191 -1191 -613 621
c-423 428 -626 627 -655 641 -45 22 -117 26 -162 9 -42 -15 -511 -485 -534
-534 -24 -51 -24 -109 0 -160 26 -57 1830 -1871 1886 -1896 51 -24 109 -24
160 0 57 27 3018 2991 3040 3043 20 50 19 104 -4 153 -26 55 -483 509 -533
530 -50 20 -104 19 -158 -6z"/>
</g>
</svg>
