<svg xmlns="http://www.w3.org/2000/svg" version="1.1" viewBox="-5.0 -10.0 110.0 135.0">
 <path d="m63.617 25.316-18.379 20.336-8.8594-9.8008h0.003906c-0.71094-0.78906-1.707-1.2617-2.7695-1.3164-1.0625-0.054687-2.0977 0.31641-2.8867 1.0273-0.78906 0.71094-1.2617 1.707-1.3125 2.7695-0.054687 1.0625 0.31641 2.0977 1.0312 2.8867l11.824 13.082c0.76172 0.83984 1.8398 1.3203 2.9688 1.3203 1.1328 0 2.2109-0.48047 2.9688-1.3203l21.348-23.617c1.4766-1.6406 1.3477-4.168-0.28906-5.6445-1.6367-1.4805-4.1641-1.3555-5.6484 0.27734z"/>
 <path d="m80 70h-60c-1.6562 0-3 1.3438-3 3s1.3438 3 3 3h60c1.6562 0 3-1.3438 3-3s-1.3438-3-3-3z"/>
<text x="0.0" y="117.5" font-size="5.0" font-weight="bold" font-family="Arbeit Regular, Helvetica, Arial-Unicode, Arial, Sans-serif" fill="#000000">Created by ridhobadal</text><text x="0.0" y="122.5" font-size="5.0" font-weight="bold" font-family="Arbeit Regular, Helvetica, Arial-Unicode, Arial, Sans-serif" fill="#000000">from Noun Project</text></svg>