<svg xmlns="http://www.w3.org/2000/svg" version="1.1" viewBox="-5.0 -10.0 110.0 135.0">
 <path d="m15.609 79.461c0 5.8086 4.7305 10.539 10.539 10.539h47.699c5.8086 0 10.539-4.7305 10.539-10.539v-4.4219c0-11.828-9.6211-21.449-21.449-21.449h-25.871c-11.828 0-21.449 9.6211-21.449 21.449v4.4219zm2-4.4219c0-10.73 8.7305-19.449 19.449-19.449h25.871c10.73 0 19.449 8.7305 19.449 19.449v4.4219c0 4.7109-3.8281 8.5391-8.5391 8.5391h-47.691c-4.7109 0-8.5391-3.8281-8.5391-8.5391z"/>
 <path d="m30.109 29.891c0 10.969 8.9219 19.891 19.891 19.891s19.891-8.9219 19.891-19.891-8.9219-19.891-19.891-19.891-19.891 8.9219-19.891 19.891zm37.781 0c0 9.8711-8.0312 17.891-17.891 17.891s-17.891-8.0312-17.891-17.891 8.0312-17.891 17.891-17.891 17.891 8.0312 17.891 17.891z"/>
<text x="0.0" y="117.5" font-size="5.0" font-weight="bold" font-family="Arbeit Regular, Helvetica, Arial-Unicode, Arial, Sans-serif" fill="#000000">Created by Uswa KDT</text><text x="0.0" y="122.5" font-size="5.0" font-weight="bold" font-family="Arbeit Regular, Helvetica, Arial-Unicode, Arial, Sans-serif" fill="#000000">from Noun Project</text></svg>