<svg xmlns="http://www.w3.org/2000/svg" version="1.1" viewBox="-5.0 -10.0 110.0 135.0">
 <path d="m50 20.688c-7.1211 0-12.93 5.8008-12.93 12.918 0 7.1172 5.8086 12.906 12.93 12.906s12.926-5.7891 12.926-12.906c0-7.1172-5.8047-12.918-12.926-12.918zm0 2.8555c5.5781 0 10.07 4.4883 10.07 10.062s-4.4922 10.062-10.07 10.062-10.07-4.4883-10.07-10.062 4.4961-10.062 10.07-10.062zm-28.094 5.832c-6 0-10.891 4.9102-10.891 10.926s4.8906 10.926 10.891 10.926 10.891-4.9102 10.891-10.926-4.8906-10.926-10.891-10.926zm56.184 0c-6 0-10.883 4.9102-10.883 10.926s4.8789 10.926 10.883 10.926c6 0 10.895-4.9102 10.895-10.926s-4.8945-10.926-10.895-10.926zm-56.184 2.8594c4.4531 0 8.0352 3.5898 8.0352 8.0664 0 4.4766-3.582 8.0664-8.0352 8.0664s-8.0352-3.5898-8.0352-8.0664c0-4.4766 3.582-8.0664 8.0352-8.0664zm56.184 0c4.4531 0 8.0352 3.5898 8.0352 8.0664 0 4.4766-3.582 8.0664-8.0352 8.0664s-8.0352-3.5898-8.0352-8.0664c0-4.4766 3.582-8.0664 8.0352-8.0664zm-28.09 16.945c-7 0-13.199 3.3984-17.035 8.6367-3.0195-2.4414-6.8711-3.9023-11.059-3.9023-9.7383 0-17.621 7.9102-17.621 17.676v6.2852c0 0.37891 0.14844 0.74609 0.41797 1.0156s0.63672 0.41797 1.0156 0.41797 0.74219-0.15234 1.0117-0.42188c0.26562-0.26953 0.41797-0.63281 0.41406-1.0117v-6.2852c0-8.2344 6.5625-14.816 14.762-14.816 3.6484 0 6.957 1.3008 9.5234 3.4766-1.6094 2.9766-2.5195 6.3867-2.5195 10.012v7.6133c0 0.37891 0.14844 0.74219 0.41406 1.0117 0.26953 0.26953 0.62891 0.42188 1.0078 0.42188 0.38281 0 0.75-0.14844 1.0195-0.41797 0.26563-0.26953 0.41797-0.63672 0.41797-1.0156v-7.6133c0-3.4648 0.94922-6.6953 2.6055-9.4414 0.054688-0.074218 0.10547-0.15234 0.14453-0.23437 3.2109-5.1445 8.9219-8.543 15.48-8.543 6.5859 0 12.312 3.4258 15.516 8.6055v-0.003907c0.027344 0.046875 0.054687 0.089844 0.082031 0.12891 1.6719 2.7578 2.6328 6.0039 2.6328 9.4883v7.6133c0 0.37891 0.15234 0.74609 0.41797 1.0156 0.26953 0.26953 0.63672 0.41797 1.0195 0.41797 0.37891 0 0.74219-0.15234 1.0078-0.42188 0.26953-0.26953 0.41797-0.63281 0.41406-1.0117v-7.6133c0-3.625-0.91406-7.0352-2.5234-10.012 2.5664-2.1758 5.875-3.4727 9.5234-3.4727 8.1992 0 14.762 6.5781 14.762 14.816v6.2852h0.003907c-0.003907 0.37891 0.14844 0.74609 0.41797 1.0156 0.26953 0.26953 0.63281 0.41797 1.0156 0.41797 0.37891 0 0.74219-0.15234 1.0117-0.42188 0.26562-0.26953 0.41406-0.63281 0.41406-1.0117v-6.2852c0-9.7656-7.8828-17.676-17.621-17.676-4.1875 0-8.0391 1.4609-11.059 3.9023-3.8359-5.2383-10.031-8.6367-17.031-8.6367z"/>
<text x="0.0" y="117.5" font-size="5.0" font-weight="bold" font-family="Arbeit Regular, Helvetica, Arial-Unicode, Arial, Sans-serif" fill="#000000">Created by Alzam</text><text x="0.0" y="122.5" font-size="5.0" font-weight="bold" font-family="Arbeit Regular, Helvetica, Arial-Unicode, Arial, Sans-serif" fill="#000000">from Noun Project</text></svg>