<svg xmlns="http://www.w3.org/2000/svg" version="1.1" viewBox="-5.0 -10.0 110.0 135.0" fill="#a36319">
 <path d="m41.527 2.9414c-3.5859 0-6.5156 2.9297-6.5156 6.5156v25.559h-25.559c-3.5859 0-6.5156 2.9297-6.5156 6.5156v16.949c0 3.5859 2.9297 6.5156 6.5156 6.5156h25.559v25.559c0 3.5859 2.9297 6.5156 6.5156 6.5156h16.949c3.5859 0 6.5156-2.9297 6.5156-6.5156v-25.559h25.559c3.5859 0 6.5156-2.9297 6.5156-6.5156l-0.007812-16.953c0-3.5859-2.9297-6.5156-6.5156-6.5156h-25.559v-25.559c0-3.5859-2.9297-6.5156-6.5156-6.5156zm0 2.9414h16.949c2.0078 0 3.5703 1.5664 3.5703 3.5703v27.023c-0.003906 0.39453 0.15234 0.76953 0.42969 1.0469 0.27734 0.27734 0.65234 0.43359 1.0469 0.42969h27.023c2.0078 0 3.582 1.5664 3.582 3.5703v16.949c0 2.0078-1.5781 3.5703-3.582 3.5703h-27.023v0.003906c-0.39453-0.003906-0.76953 0.15234-1.0469 0.42969-0.27734 0.27734-0.43359 0.65234-0.42969 1.0469v27.023c0 2.0078-1.5664 3.582-3.5703 3.582h-16.949c-2.0078 0-3.582-1.5781-3.582-3.582v-27.023c0-0.39063-0.15234-0.76563-0.42969-1.043-0.27344-0.27734-0.64844-0.43359-1.0391-0.43359h-27.023c-2.0078 0-3.5703-1.5664-3.5703-3.5703v-16.949c0-2.0078 1.5625-3.5703 3.5703-3.5703h27.023v-0.003906c0.39063 0 0.76563-0.15625 1.0391-0.43359 0.27734-0.27734 0.42969-0.65234 0.42969-1.043v-27.023c0-2.0078 1.5781-3.5703 3.582-3.5703z"/>
</svg>