<svg xmlns="http://www.w3.org/2000/svg" version="1.1" viewBox="-5.0 -10.0 110.0 135.0" fill="#a36319" >
 <path d="m63.469 20.312h-26.941c-4.8164 0-8.7344 3.918-8.7344 8.7383v45.293c0 2.1719 1.2422 4.0508 3.2383 4.9023 2 0.84375 4.2109 0.44531 5.7773-1.0625l11.711-11.266c0.82812-0.80078 2.1289-0.80078 2.9609 0l11.723 11.277c1.0234 0.98438 2.3242 1.5 3.6562 1.5 0.70703 0 1.4219-0.14453 2.1094-0.4375 1.9961-0.85156 3.2383-2.7266 3.2383-4.8945v-45.312c0-4.8203-3.9219-8.7383-8.7383-8.7383zm5.6133 54.051c0 0.91016-0.5 1.6641-1.332 2.0156-0.83203 0.35938-1.7227 0.19531-2.3789-0.4375l-11.723-11.277c-2.043-1.9648-5.25-1.9648-7.293 0l-11.711 11.266c-0.65625 0.63281-1.543 0.79687-2.3867 0.4375-0.83594-0.35547-1.3398-1.1094-1.3398-2.0234v-45.293c0-3.0938 2.5156-5.6133 5.6094-5.6133h26.941c3.0938 0 5.6094 2.5195 5.6094 5.6133v45.312z"/>
</svg>